<svg version="1.0" xmlns="http://www.w3.org/2000/svg"
 width="1010.000000pt" height="654.000000pt" viewBox="0 0 1010.000000 654.000000"
 preserveAspectRatio="xMidYMid meet">

<g transform="translate(0.000000,654.000000) scale(0.100000,-0.100000)"
fill="#000000" stroke="none">
<path d="M4551 4614 c-283 -96 -520 -179 -528 -186 -8 -6 -13 -21 -11 -32 2
-17 25 -29 126 -63 68 -23 126 -43 128 -46 3 -3 -8 -29 -25 -58 -33 -60 -61
-154 -61 -210 0 -24 -7 -42 -21 -55 -54 -48 -56 -127 -3 -169 25 -20 26 -22
15 -78 -17 -90 -79 -213 -145 -284 l-57 -62 23 -15 c13 -8 53 -29 90 -46 l68
-32 35 22 c94 58 117 135 105 348 -7 134 -7 149 10 167 37 42 30 117 -13 154
-33 27 -12 153 37 227 38 58 64 74 231 142 83 33 229 92 325 131 96 39 185 71
197 71 25 0 63 -32 63 -54 0 -30 -39 -56 -145 -96 -106 -40 -206 -79 -345
-133 -36 -14 -78 -31 -94 -37 -16 -6 -27 -13 -24 -15 10 -10 530 -185 549
-185 32 0 1062 348 1071 362 4 7 7 22 6 33 -3 17 -80 46 -533 197 -291 97
-537 177 -545 177 -8 0 -246 -79 -529 -175z"/>
<path d="M4411 4074 c-16 -59 -13 -81 14 -101 52 -37 69 -141 35 -208 -11 -22
-20 -42 -20 -46 0 -11 96 -68 154 -91 162 -65 378 -88 639 -69 174 12 281 37
382 87 81 41 122 76 141 121 19 44 20 343 2 343 -7 0 -161 -50 -343 -111
l-330 -112 -305 108 c-168 59 -317 110 -332 112 -24 5 -28 1 -37 -33z"/>
<path d="M2494 2911 c-10 -10 -2 -22 14 -20 43 4 42 7 42 -201 l0 -200 -24 0
c-14 0 -28 -4 -31 -10 -4 -6 20 -10 65 -10 45 0 69 4 65 10 -3 6 -17 10 -31
10 l-24 0 0 185 c0 102 2 185 5 185 3 0 64 -90 136 -200 73 -110 136 -197 140
-194 5 3 9 99 9 215 0 214 0 215 38 210 6 -1 12 3 12 9 0 6 -27 10 -67 10 -36
0 -63 -3 -59 -7 4 -5 18 -8 29 -8 21 0 22 -4 25 -132 1 -73 -1 -133 -5 -133
-4 1 -48 63 -97 140 l-88 139 -75 3 c-41 2 -77 1 -79 -1z"/>
<path d="M3050 2909 c-30 -3 -43 -6 -27 -7 l27 -2 0 -112 c1 -62 2 -153 3
-203 l2 -90 -27 -3 c-16 -2 -28 -8 -28 -13 0 -12 187 -12 195 1 4 6 -7 10 -24
10 l-31 0 0 205 0 205 25 0 c14 0 25 4 25 10 0 10 -42 10 -140 -1z"/>
<path d="M4797 2901 c-43 -28 -60 -59 -60 -108 0 -80 35 -111 148 -132 70 -13
95 -36 95 -88 0 -25 -8 -43 -29 -64 -54 -54 -127 -31 -181 56 -12 19 -26 35
-31 35 -5 0 -9 -29 -9 -65 0 -66 10 -81 37 -54 9 9 21 8 46 -5 46 -21 84 -20
136 4 52 26 81 71 81 128 0 87 -36 121 -149 140 -71 13 -101 33 -101 69 0 37
18 63 53 78 44 18 76 4 122 -56 21 -27 42 -46 46 -42 5 5 6 32 2 60 -5 49 -7
51 -37 52 -17 0 -56 3 -86 6 -43 3 -61 0 -83 -14z"/>
<path d="M5175 2910 c-42 -4 -51 -7 -31 -10 l29 -5 4 -202 5 -203 -31 0 c-17
0 -31 -4 -31 -10 0 -6 40 -10 100 -10 60 0 100 4 100 10 0 6 -13 10 -30 10
l-30 0 0 205 0 205 25 0 c14 0 25 5 25 10 0 10 -16 10 -135 0z"/>
<path d="M1970 2899 c0 -6 12 -9 28 -7 l27 3 6 -178 c5 -157 8 -181 26 -205
35 -48 146 -68 216 -38 64 26 71 51 74 240 2 92 5 172 8 176 3 5 14 7 25 5 11
-2 20 0 20 6 0 5 -29 9 -65 9 -37 0 -65 -4 -65 -10 0 -5 14 -10 30 -10 l30 0
-3 -176 -3 -176 -32 -29 c-43 -39 -111 -41 -147 -4 -25 24 -25 26 -25 205 l0
180 25 0 c14 0 25 5 25 10 0 6 -40 10 -100 10 -64 0 -100 -4 -100 -11z"/>
<path d="M3280 2901 c0 -5 12 -11 26 -13 25 -3 31 -16 94 -188 100 -275 97
-268 117 -207 117 351 135 397 159 397 13 0 24 5 24 10 0 6 -26 10 -59 10 -33
0 -63 -4 -66 -10 -4 -6 7 -10 25 -10 22 0 31 -4 27 -12 -2 -7 -24 -73 -48
-145 -24 -73 -46 -133 -50 -133 -3 0 -17 30 -31 68 -51 134 -78 208 -78 215 0
4 11 7 25 7 14 0 25 5 25 10 0 6 -38 10 -95 10 -52 0 -95 -4 -95 -9z"/>
<path d="M3784 2903 c8 -8 13 -9 41 -12 13 -1 15 -30 15 -201 l0 -200 -24 0
c-14 0 -27 -4 -30 -9 -4 -6 68 -10 174 -11 l180 -1 0 48 c0 26 3 58 6 71 10
37 -13 25 -38 -20 -33 -60 -67 -81 -130 -82 l-53 -1 -1 92 c0 51 3 98 7 104
11 18 65 -16 79 -51 21 -51 30 -34 30 60 0 55 -4 90 -10 90 -6 0 -13 -8 -17
-17 -17 -50 -82 -85 -84 -45 -11 191 -13 184 54 176 64 -7 87 -21 112 -68 11
-20 23 -36 27 -36 9 0 11 81 2 104 -5 14 -30 16 -177 16 -94 0 -167 -3 -163
-7z"/>
<path d="M4255 2902 l30 -7 3 -203 2 -202 -25 0 c-14 0 -25 -4 -25 -10 0 -6
36 -10 89 -10 50 0 93 5 96 10 4 6 -7 10 -25 10 l-31 0 3 103 3 102 28 3 c19
2 35 -5 56 -25 23 -24 29 -41 35 -96 6 -55 12 -70 33 -87 27 -21 113 -29 113
-10 0 6 -11 10 -24 10 -28 0 -36 16 -36 77 0 52 -26 95 -71 119 l-30 15 49 25
c76 38 92 91 43 146 l-29 33 -159 2 c-87 1 -144 -2 -128 -5z m222 -17 c26 -18
37 -76 23 -120 -12 -36 -57 -60 -102 -53 -21 3 -23 9 -26 82 -2 44 -1 85 2 93
7 18 76 17 103 -2z"/>
<path d="M5418 2903 c-15 -4 -18 -16 -18 -69 0 -35 4 -64 8 -64 5 0 17 19 28
41 27 61 113 107 115 62 0 -10 1 -100 2 -200 2 -182 2 -183 -20 -183 -12 0
-25 -4 -28 -10 -4 -6 30 -10 95 -10 65 0 99 4 95 10 -3 6 -17 10 -31 10 l-24
0 0 199 c0 110 4 202 8 205 20 12 78 -31 102 -76 14 -27 28 -48 33 -48 4 0 7
32 7 70 l0 70 -177 -1 c-98 -1 -186 -3 -195 -6z"/>
<path d="M5870 2899 c0 -5 10 -9 22 -7 17 2 32 -16 89 -112 l69 -115 0 -87 0
-88 -30 0 c-16 0 -30 -4 -30 -9 0 -13 197 -14 205 -1 4 6 -6 10 -24 10 l-31 0
0 98 0 97 58 105 c49 90 60 105 80 102 12 -2 22 2 22 7 0 7 -27 11 -71 11 -46
0 -68 -4 -64 -10 4 -6 14 -8 23 -6 42 13 40 -10 -6 -98 -26 -49 -51 -89 -57
-88 -9 0 -103 158 -104 175 -1 4 8 7 18 7 11 0 23 5 26 10 4 6 -30 10 -94 10
-65 0 -101 -4 -101 -11z"/>
<path d="M6738 2899 l32 -10 -2 -202 c-3 -199 -3 -202 -25 -202 -11 0 -25 -3
-29 -7 -4 -5 36 -8 89 -8 54 0 97 4 97 8 0 5 -10 8 -22 8 -22 -1 -23 2 -26
102 l-3 103 83 -3 83 -3 3 -97 3 -98 -25 0 c-14 0 -28 -4 -31 -10 -4 -6 30
-10 95 -10 65 0 99 4 95 10 -3 6 -17 10 -31 10 l-24 0 0 205 0 205 25 -6 c15
-4 25 -2 25 5 0 7 -32 11 -97 10 -57 -1 -85 -4 -68 -8 l30 -6 0 -95 0 -95 -80
0 -80 0 0 95 c0 91 1 95 22 95 12 0 25 4 29 8 4 4 -40 7 -97 6 -83 -1 -97 -3
-71 -10z"/>
<path d="M7240 2899 c0 -6 12 -9 28 -7 l27 3 5 -177 c5 -159 8 -180 26 -205
37 -49 147 -69 219 -39 61 26 70 58 70 248 0 104 4 169 10 169 6 1 18 2 28 2
9 0 17 4 17 8 0 5 -29 9 -65 9 -37 0 -65 -4 -65 -10 0 -5 13 -10 30 -10 l29 0
-3 -176 -2 -177 -32 -28 c-43 -39 -111 -41 -147 -4 -23 22 -25 32 -25 122 -1
54 -1 125 -1 158 -1 106 -1 105 26 105 14 0 25 5 25 10 0 6 -40 10 -100 10
-64 0 -100 -4 -100 -11z"/>
<path d="M7756 2901 c-5 -7 4 -11 23 -11 l31 0 0 -204 0 -205 -27 -4 c-16 -2
29 -5 98 -6 157 -1 182 3 226 45 32 31 35 38 30 75 -6 48 -38 86 -81 97 l-30
8 37 21 c48 29 68 89 43 127 -34 53 -59 61 -207 64 -92 3 -139 0 -143 -7z
m256 -28 c13 -12 18 -30 18 -68 0 -69 -20 -93 -82 -101 l-47 -7 -3 93 c-2 50
-1 94 1 96 12 12 96 2 113 -13z m-9 -192 c32 -12 50 -65 41 -119 -9 -60 -21
-70 -84 -74 l-55 -3 -3 103 -3 102 40 0 c22 0 51 -4 64 -9z"/>
<path d="M2993 2102 l-63 -3 0 -154 0 -155 65 0 c49 0 67 4 71 15 10 24 -15
45 -53 45 -33 0 -34 1 -31 38 3 35 5 37 41 40 32 3 37 7 37 28 0 21 -5 24 -34
24 -40 0 -50 11 -42 45 5 19 14 24 43 27 27 2 39 8 41 22 6 27 -6 31 -75 28z"/>
<path d="M3529 2101 c-50 -16 -71 -33 -90 -74 -46 -102 -6 -217 83 -236 45
-10 68 -3 68 20 0 15 -7 19 -33 19 -44 0 -77 35 -84 88 -11 81 21 132 82 132
27 0 35 4 35 18 0 17 -18 43 -29 41 -4 0 -18 -4 -32 -8z"/>
<path d="M4578 2103 l-58 -4 0 -154 0 -155 66 0 65 0 -3 28 c-3 23 -8 27 -40
30 -37 3 -38 4 -38 43 0 39 0 39 40 39 36 0 40 3 40 24 0 21 -5 25 -37 28 -35
3 -38 6 -38 33 0 27 4 30 38 35 21 3 38 8 37 13 0 4 0 16 0 27 0 11 -3 19 -7
18 -5 -1 -34 -3 -65 -5z"/>
<path d="M6457 2096 c-20 -8 -43 -19 -51 -25 -41 -34 -59 -136 -35 -198 22
-60 91 -102 145 -89 23 6 24 10 24 86 l0 80 -35 0 c-41 0 -59 -25 -32 -45 17
-12 24 -75 9 -75 -39 0 -78 78 -69 137 10 62 31 83 82 83 41 0 45 2 45 24 0
13 -7 27 -16 30 -20 8 -22 8 -67 -8z"/>
<path d="M2590 1944 l0 -156 60 4 c66 5 94 23 116 75 32 74 3 197 -52 221 -14
7 -47 12 -74 12 l-50 0 0 -156z m117 80 c10 -16 17 -47 17 -78 1 -63 -23 -106
-59 -106 l-25 0 0 105 0 105 25 0 c15 0 31 -10 42 -26z"/>
<path d="M2830 1939 l0 -160 23 3 c22 3 22 6 25 161 l3 157 -26 0 -25 0 0
-161z"/>
<path d="M3258 2090 c-9 -6 -22 -26 -28 -44 -14 -43 1 -75 55 -124 27 -25 35
-40 33 -60 -3 -25 -7 -27 -48 -27 -38 0 -45 -3 -48 -22 -3 -17 3 -22 35 -28
70 -11 113 20 113 82 0 32 -14 55 -65 106 -19 19 -35 42 -35 50 0 21 24 38 51
35 18 -2 25 2 27 20 3 20 -1 22 -35 22 -21 0 -46 -5 -55 -10z"/>
<path d="M3632 1943 l3 -158 25 0 c24 0 25 3 28 68 l3 67 34 0 35 0 0 -70 c0
-68 1 -70 25 -70 l25 0 0 160 0 160 -25 0 c-24 0 -25 -2 -25 -65 l0 -65 -35 0
-35 0 0 65 0 65 -30 0 -31 0 3 -157z"/>
<path d="M3862 1965 c3 -124 5 -136 26 -157 33 -34 97 -31 128 5 23 27 24 35
24 158 l0 129 -25 0 -25 0 0 -111 c0 -117 -9 -149 -41 -149 -32 0 -42 43 -35
158 l7 102 -31 0 -32 0 4 -135z"/>
<path d="M4090 1940 l0 -161 63 3 c59 3 62 4 62 28 0 22 -5 25 -37 28 l-38 3
0 130 0 129 -25 0 -25 0 0 -160z"/>
<path d="M4275 2059 c4 -23 21 -94 39 -158 29 -107 33 -116 55 -116 22 0 27
10 62 145 21 80 39 151 39 158 0 6 -11 12 -25 12 -26 0 -31 -12 -56 -130 -6
-30 -14 -59 -18 -63 -4 -4 -18 38 -30 93 -21 94 -24 100 -48 100 -24 0 -24 -2
-18 -41z"/>
<path d="M4700 1940 l0 -160 25 0 c23 0 24 4 27 63 l3 62 33 -62 c26 -52 37
-63 57 -63 32 0 31 8 -5 81 l-31 60 26 30 c28 35 32 67 10 108 -17 35 -32 41
-96 41 l-49 0 0 -160z m104 87 c13 -21 -10 -70 -37 -75 -14 -3 -17 5 -17 48 0
47 2 51 21 48 12 -2 27 -11 33 -21z"/>
<path d="M4920 2093 c0 -4 18 -75 38 -158 33 -130 41 -150 59 -153 19 -3 23 6
39 78 19 90 26 89 44 -8 12 -63 30 -86 51 -65 6 6 25 69 43 139 18 71 36 139
40 152 6 19 4 22 -21 22 -28 0 -30 -3 -47 -77 -10 -43 -21 -82 -25 -88 -3 -5
-12 28 -21 75 -14 80 -17 85 -41 88 -25 3 -27 0 -39 -65 -20 -114 -22 -115
-45 -23 -19 79 -23 85 -48 88 -15 2 -27 0 -27 -5z"/>
<path d="M5350 2095 c0 -2 -13 -66 -30 -142 -16 -75 -30 -143 -30 -150 0 -7
11 -13 25 -13 18 0 25 5 25 20 0 16 7 20 36 20 27 0 37 -5 41 -20 4 -13 14
-20 30 -20 21 0 24 4 19 23 -3 12 -18 82 -33 155 -27 131 -28 132 -55 132 -16
0 -28 -2 -28 -5z m45 -182 c6 -29 4 -33 -14 -33 -22 0 -25 9 -15 60 8 36 17
27 29 -27z"/>
<path d="M5520 1940 l0 -161 63 3 c59 3 62 4 62 28 0 22 -5 25 -37 28 l-38 3
0 130 0 129 -25 0 -25 0 0 -160z"/>
<path d="M5694 2085 c-8 -21 4 -35 32 -35 l24 0 0 -136 c0 -135 0 -135 23
-132 21 3 22 7 25 136 l3 132 24 0 c20 0 25 5 25 25 0 24 -2 25 -75 25 -57 0
-77 -4 -81 -15z"/>
<path d="M5902 1965 c3 -124 5 -136 26 -157 33 -34 97 -31 128 5 23 27 24 35
24 158 l0 129 -25 0 -25 0 0 -113 c0 -120 -10 -152 -45 -146 -28 6 -37 53 -30
162 l7 97 -32 0 -32 0 4 -135z"/>
<path d="M6130 1940 l0 -160 25 0 c25 0 25 1 25 92 0 51 4 88 8 83 5 -6 21
-41 37 -80 32 -81 47 -100 69 -92 14 5 16 29 16 162 l0 155 -25 0 c-24 0 -24
-2 -27 -92 l-3 -93 -39 93 c-33 79 -42 92 -62 92 l-24 0 0 -160z"/>
<path d="M6621 2076 c-41 -44 -24 -111 41 -157 23 -17 28 -27 26 -53 -3 -29
-5 -31 -45 -30 -28 0 -44 -4 -48 -14 -8 -21 2 -31 40 -38 65 -12 124 42 109
101 -4 15 -28 49 -55 75 -27 27 -49 55 -49 63 0 21 24 38 51 35 18 -2 25 2 27
20 3 20 -1 22 -36 22 -28 0 -45 -7 -61 -24z"/>
<path d="M6972 1953 c-18 -82 -32 -151 -32 -155 0 -5 11 -8 25 -8 18 0 25 5
25 20 0 16 7 20 36 20 27 0 37 -5 41 -20 3 -13 14 -20 29 -20 13 0 24 3 24 7
0 4 -14 74 -32 155 -31 145 -32 148 -58 148 -26 0 -27 -3 -58 -147z m68 -2 c0
-5 3 -23 6 -40 6 -27 4 -31 -15 -31 -23 0 -24 3 -15 49 6 28 24 45 24 22z"/>
<path d="M7170 1939 l0 -160 23 3 c19 3 22 10 25 61 3 53 5 57 28 57 40 0 74
42 74 90 0 46 -21 94 -45 104 -9 3 -37 6 -61 6 l-44 0 0 -161z m82 104 c32
-29 19 -103 -19 -103 -9 0 -13 17 -13 60 0 33 3 60 7 60 3 0 15 -7 25 -17z"/>
<path d="M7370 1940 c0 -152 1 -160 20 -160 20 0 34 42 28 89 -3 21 2 26 31
32 43 9 60 27 68 72 13 82 -21 127 -97 127 l-50 0 0 -160z m82 103 c20 -18 24
-73 6 -91 -18 -18 -51 -15 -44 4 3 9 6 36 6 60 0 48 4 52 32 27z"/>
<path d="M6790 1905 c0 -23 3 -25 50 -25 47 0 50 2 50 25 0 23 -3 25 -50 25
-47 0 -50 -2 -50 -25z"/>
</g>
</svg>