<?xml version="1.0" standalone="no"?>
<!DOCTYPE svg PUBLIC "-//W3C//DTD SVG 20010904//EN"
 "http://www.w3.org/TR/2001/REC-SVG-20010904/DTD/svg10.dtd">
<svg version="1.0" xmlns="http://www.w3.org/2000/svg"
 width="310.000000pt" height="229.000000pt" viewBox="0 0 310.000000 229.000000"
 preserveAspectRatio="xMidYMid meet">

<g transform="translate(0.000000,229.000000) scale(0.100000,-0.100000)"
fill="#000000" stroke="none">
<path d="M1065 1946 c-893 -303 -865 -293 -865 -331 0 -33 22 -45 180 -100 74
-26 139 -51 144 -56 6 -5 -5 -39 -26 -86 -46 -100 -65 -161 -77 -246 -5 -38
-18 -80 -28 -94 -47 -66 -53 -80 -53 -125 0 -40 6 -53 40 -93 36 -42 40 -51
34 -83 -29 -160 -130 -350 -243 -456 -17 -17 -31 -33 -31 -38 0 -9 219 -118
239 -118 23 0 117 76 140 114 42 67 54 162 46 367 l-7 186 27 52 c35 67 31
120 -15 188 -30 45 -31 52 -26 111 9 84 49 181 98 237 51 58 113 88 528 253
461 184 441 177 479 157 18 -9 37 -27 43 -40 23 -50 -35 -92 -227 -164 -167
-62 -546 -211 -562 -219 -15 -9 -14 -11 3 -20 10 -5 169 -61 353 -122 291 -98
340 -112 380 -107 61 7 1140 366 1378 459 40 15 50 47 23 70 -11 9 -57 31
-103 48 -106 41 -1263 426 -1302 434 -23 4 -165 -41 -570 -178z"/>
<path d="M731 1187 c-6 -18 -12 -51 -13 -75 -1 -35 4 -48 29 -75 17 -18 39
-47 48 -66 25 -49 23 -145 -4 -206 -11 -26 -21 -53 -21 -60 0 -26 147 -107
275 -149 160 -54 284 -69 560 -69 362 -1 535 28 720 118 108 52 158 93 187
148 18 35 22 65 26 198 6 182 -2 269 -24 269 -9 0 -212 -66 -452 -146 l-437
-147 -120 42 c-160 57 -562 197 -650 227 -96 32 -111 31 -124 -9z"/>
</g>
</svg>
